<svg width="500" height="500" viewBox="0 0 500 500" fill="none" xmlns="http://www.w3.org/2000/svg">
<path d="M247.093 127.907C312.917 127.907 366.279 181.268 366.279 247.093C366.279 312.917 312.917 366.279 247.093 366.279C181.268 366.279 127.907 312.917 127.907 247.093C127.907 181.268 181.268 127.907 247.093 127.907Z" fill="white"/>
<path fill-rule="evenodd" clip-rule="evenodd" d="M128.832 262.013C125.65 261.758 122.433 261.628 119.186 261.628C53.3614 261.628 6.53952e-06 314.989 0 380.814C-6.53952e-06 446.639 53.3614 500 119.186 500C185.011 500 238.372 446.639 238.372 380.814C238.372 375.761 238.058 370.782 237.447 365.894C181.084 361.38 135.78 317.655 128.832 262.013Z" fill="#5D00F5"/>
<path fill-rule="evenodd" clip-rule="evenodd" d="M238.372 119.186C238.372 53.3614 185.011 6.53952e-06 119.186 0C53.3614 -6.53952e-06 6.53952e-06 53.3614 0 119.186C-6.53952e-06 185.011 53.3614 238.372 119.186 238.372C122.234 238.372 125.256 238.258 128.246 238.033C132.651 179.431 179.431 132.651 238.033 128.246C238.258 125.256 238.372 122.234 238.372 119.186Z" fill="#EB236B"/>
<path fill-rule="evenodd" clip-rule="evenodd" d="M365.894 237.447C370.782 238.058 375.761 238.372 380.814 238.372C446.639 238.372 500 185.011 500 119.186C500 53.3614 446.639 1.22941e-05 380.814 0C314.989 -1.22941e-05 261.628 53.3614 261.628 119.186C261.628 122.433 261.758 125.65 262.013 128.832C317.655 135.78 361.381 181.084 365.894 237.447Z" fill="#4BD0A0"/>
<path fill-rule="evenodd" clip-rule="evenodd" d="M262.632 365.275C261.969 370.361 261.628 375.548 261.628 380.814C261.628 446.639 314.989 500 380.814 500C446.639 500 500 446.639 500 380.814C500 314.989 446.639 261.628 380.814 261.628C375.548 261.628 370.361 261.969 365.275 262.632C358.323 316.029 316.029 358.323 262.632 365.275Z" fill="#0066FF"/>
</svg>
